<svg width="214" height="51" viewBox="0 0 214 51" fill="none" xmlns="http://www.w3.org/2000/svg">
<path d="M29.5586 25.5189H24.0443L26.9078 19.5759L29.3115 24.4504C29.4762 24.7874 29.5586 25.1531 29.5586 25.5189Z" fill="#67CAE8"/>
<path d="M29.5587 25.5188C29.5587 25.8735 29.4787 26.2282 29.3209 26.5562L18.2421 49.5635C17.8213 50.4391 16.9178 50.9978 15.9184 50.9978H15.3809C13.7044 50.9978 12.5929 49.3086 13.3019 47.8367L24.0445 25.5166H29.5587V25.5188Z" fill="#148FCE"/>
<path d="M45.493 25.5188H40.0177C40.0154 24.8161 39.8484 24.1157 39.5282 23.4662L32.1912 8.58977C32.7675 7.39274 33.9317 6.79645 35.0958 6.79645C36.2485 6.79645 37.4035 7.38166 37.9821 8.56317L43.4209 19.5869L44.7017 22.1849C45.2232 23.2401 45.4885 24.3817 45.493 25.5188Z" fill="#67CAE8"/>
<path d="M45.493 25.5189C45.4976 26.6627 45.246 27.8087 44.736 28.8683L34.7115 49.6811C34.3273 50.4857 33.4925 51 32.5777 51H32.0493C30.3043 51 29.1424 49.2422 29.8834 47.706L39.5488 27.5848C39.8667 26.9287 40.0222 26.2238 40.0177 25.5189H45.493Z" fill="#148FCE"/>
<path d="M37.6848 25.5188H31.8709C31.8686 24.9381 31.7337 24.3595 31.4684 23.8253L28.1223 17.0443L30.9881 11.088L33.911 17.0133L35.1735 19.5714L37.2982 23.874C37.5567 24.3905 37.6848 24.9558 37.6848 25.5188Z" fill="#67CAE8"/>
<path d="M37.6849 25.5189C37.6849 26.0686 37.5591 26.6139 37.3144 27.126L26.4894 49.6124C26.08 50.4591 25.2064 51 24.2412 51H23.722C22.009 51 20.8746 49.2732 21.5996 47.7725L31.4891 27.2324C31.7475 26.6893 31.8779 26.1041 31.8733 25.5189H37.6849Z" fill="#148FCE"/>
<path d="M15.9365 25.4811H21.4508L18.5896 31.4242L16.1835 26.5496C16.0189 26.2127 15.9365 25.8469 15.9365 25.4811Z" fill="#67CAE8"/>
<path d="M15.9365 25.4811C15.9365 25.1265 16.0166 24.7718 16.1744 24.4437L27.2509 1.43641C27.674 0.563028 28.5774 0.00219727 29.5792 0.00219727H30.1167C31.7931 0.00219727 32.9046 1.69134 32.1956 3.16324L21.453 25.4834H15.9365V25.4811Z" fill="#148FCE"/>
<path d="M0 25.4811H5.47536C5.47765 26.1838 5.64461 26.8843 5.9648 27.5338L13.3019 42.4102C12.7278 43.6072 11.5614 44.2035 10.3972 44.2035C9.24453 44.2035 8.08954 43.6183 7.51089 42.4368L2.07213 31.4109L0.791342 28.8129C0.272167 27.7577 0.00686135 26.6205 0 25.4811Z" fill="#67CAE8"/>
<path d="M6.18072e-05 25.4812C-0.00451243 24.3373 0.244784 23.1913 0.757098 22.1317L10.7815 1.31895C11.1658 0.514278 12.0006 0 12.9154 0H13.4437C15.1911 0 16.3507 1.75786 15.6096 3.29404L5.94428 23.4174C5.62637 24.0713 5.47085 24.7762 5.47542 25.4789H6.18072e-05V25.4812Z" fill="#148FCE"/>
<path d="M7.81042 25.4811H13.6243C13.6266 26.0619 13.7615 26.6405 14.0268 27.1791L17.3729 33.9579L14.5071 39.9186L11.5819 33.9911L10.3217 31.433L8.19695 27.1304C7.9385 26.6094 7.81042 26.0442 7.81042 25.4811Z" fill="#67CAE8"/>
<path d="M7.81042 25.4812C7.81042 24.9314 7.93622 24.3861 8.18094 23.874L19.0059 1.38767C19.4153 0.540879 20.2889 0 21.2541 0H21.7733C23.4863 0 24.6207 1.72682 23.8934 3.22754L14.0085 23.7676C13.7501 24.3107 13.6197 24.8959 13.6243 25.4812H7.81042Z" fill="#148FCE"/>
<path d="M52.6768 27.4562H56.391C56.4779 28.7065 57.3516 29.5111 58.6644 29.5111C59.8217 29.5111 60.565 28.9813 60.565 28.1545C60.565 25.6563 53.0701 27.9217 53.0701 21.8856C53.0701 19.3652 55.3001 17.5652 58.4243 17.5652C61.8344 17.5652 64.0849 19.4495 64.1284 22.3511H60.4575C60.3706 21.3979 59.6273 20.7839 58.4243 20.7839C57.4637 20.7839 56.8279 21.2295 56.8279 21.8856C56.8279 24.661 64.4554 22.0984 64.4554 28.0924C64.4554 30.9099 62.182 32.732 58.6644 32.732C55.1468 32.7298 52.7865 30.655 52.6768 27.4562Z" fill="#148FCE"/>
<path d="M70.8365 28.4294L69.6998 29.551V32.5591H66.0724V17.1396H69.6998V25.1464L72.9337 21.8856H77.4348L73.1739 26.0996L77.7413 32.5591H73.4575L70.8365 28.4294Z" fill="#148FCE"/>
<path d="M85.1288 32.4749L83.5324 36.8795H80.1017L81.8284 32.3463L77.874 21.8834H81.5243L83.4912 28.0902L85.4352 21.8834H89.1061L85.1288 32.4749Z" fill="#148FCE"/>
<path d="M90.1559 21.8856H93.7627V23.1137C94.3962 22.2868 95.5558 21.7149 96.9967 21.7149C99.4667 21.7149 101.084 23.4728 101.084 25.8447V32.5591H97.4769V26.6715C97.4769 25.6119 96.7131 24.8073 95.6198 24.8073C94.5266 24.8073 93.7627 25.6119 93.7627 26.6715V32.5591H90.1559V21.8856Z" fill="#148FCE"/>
<path d="M110.109 28.8528H113.583C113.123 31.2247 110.959 32.7298 108.251 32.7298C104.297 32.7298 102.504 29.7439 102.504 27.2235C102.504 24.7031 104.077 21.7172 108.032 21.7172C112.206 21.7172 113.583 24.7674 113.583 27.0129C113.583 27.5006 113.56 27.7976 113.539 28.0504H105.955C106.175 29.2363 106.939 29.9146 108.249 29.9146C109.235 29.9124 109.912 29.5732 110.109 28.8528ZM105.957 25.9733H110.022C109.955 25.0622 109.278 24.1933 108.034 24.1933C106.875 24.1933 106.198 24.6809 105.957 25.9733Z" fill="#148FCE"/>
<path d="M119.836 18.8554V21.8834H122.61V24.7629H119.836V28.2786C119.836 29.254 120.339 29.6774 121.279 29.6774H122.612V32.5591H120.732C118.022 32.5591 116.231 31.0983 116.231 28.4493V24.7629H114.198V21.8834H116.231V18.8554H119.836Z" fill="#148FCE"/>
<path d="M124.12 24.364H133.014V27.3299H124.12V24.364Z" fill="#148FCE"/>
<path d="M135.308 17.7337H141.646C144.377 17.7337 146.584 19.046 146.584 21.5465C146.584 22.9452 145.731 24.0026 144.88 24.4703C146.213 25.0201 147.393 26.2082 147.393 28.0925C147.393 30.972 145.01 32.5614 141.756 32.5614H135.308V17.7337ZM141.319 23.1979C142.542 23.1979 143.046 22.6903 143.046 21.9278C143.046 21.1652 142.542 20.6576 141.232 20.6576H139.135V23.2002H141.319V23.1979ZM141.47 29.3405C143.11 29.3405 143.764 28.8328 143.764 27.8575C143.764 26.8821 143.107 26.3324 141.47 26.3324H139.132V29.3405H141.47Z" fill="#148FCE"/>
<path d="M159.938 32.5614H156.331V31.3333C155.698 32.1601 154.538 32.7321 153.097 32.7321C150.627 32.7321 149.01 30.9742 149.01 28.6023V21.8879H152.617V27.7755C152.617 28.8351 153.381 29.6397 154.474 29.6397C155.567 29.6397 156.331 28.8351 156.331 27.7755V21.8879H159.938V32.5614Z" fill="#148FCE"/>
<path d="M167.412 24.7651C166.209 24.7651 165.512 25.654 165.512 27.1592V32.5613H161.905V21.8856H165.512V23.495C166.145 22.2248 166.955 21.8856 168.179 21.8856H169.336V24.7651H167.412Z" fill="#148FCE"/>
<path d="M181.531 32.5614H177.924V31.3333C177.29 32.1601 176.131 32.7321 174.69 32.7321C172.22 32.7321 170.603 30.9742 170.603 28.6023V21.8879H174.21V27.7755C174.21 28.8351 174.973 29.6397 176.067 29.6397C177.16 29.6397 177.924 28.8351 177.924 27.7755V21.8879H181.531V32.5614Z" fill="#148FCE"/>
<path d="M183.498 21.8856H187.104V23.1137C187.738 22.2868 188.895 21.7149 190.338 21.7149C192.809 21.7149 194.426 23.4728 194.426 25.8447V32.5591H190.819V26.6715C190.819 25.6119 190.055 24.8073 188.962 24.8073C187.868 24.8073 187.104 25.6119 187.104 26.6715V32.5591H183.498V21.8856Z" fill="#148FCE"/>
<path d="M195.846 27.2235C195.846 23.8142 197.835 21.7171 200.937 21.7171C202.227 21.7171 203.144 22.1206 203.734 22.7346V17.1418H207.341V32.5613H203.734V31.6503C203.144 32.3485 202.14 32.7298 201.003 32.7298C197.833 32.7298 195.846 30.6328 195.846 27.2235ZM203.931 27.2235C203.931 25.6984 203.014 24.6809 201.637 24.6809C200.283 24.6809 199.363 25.6984 199.363 27.2235C199.363 28.7486 200.28 29.766 201.637 29.766C203.014 29.7638 203.931 28.7486 203.931 27.2235Z" fill="#148FCE"/>
<path d="M213.198 17.1418V20.5733H209.438V17.1418H213.198ZM209.505 21.8856H213.111V32.5613H209.505V21.8856Z" fill="#148FCE"/>
</svg>
